<?xml version="1.0" encoding="utf-8"?>
<!-- Generator: Adobe Illustrator 15.0.0, SVG Export Plug-In . SVG Version: 6.00 Build 0)  -->
<!DOCTYPE svg PUBLIC "-//W3C//DTD SVG 1.1//EN" "http://www.w3.org/Graphics/SVG/1.1/DTD/svg11.dtd">
<svg version="1.1" id="Layer_1" xmlns="http://www.w3.org/2000/svg" xmlns:xlink="http://www.w3.org/1999/xlink" x="0px" y="0px"
	 width="132.331px" height="260.902px" viewBox="0 0 132.331 260.902" enable-background="new 0 0 132.331 260.902"
	 xml:space="preserve">
<g>
	<polygon fill="#FFFFFF" points="5.654,150.745 5.654,69.337 95.165,69.337 95.165,85.589 21.956,85.589 21.956,134.442 
		95.165,134.442 95.165,150.745 	"/>
	<polygon fill="#FFFFFF" points="5.654,85.515 5.654,4.107 95.165,4.107 95.165,20.359 21.956,20.359 21.956,69.213 95.165,69.213 
		95.165,85.515 	"/>
	<polygon fill="#FFFFFF" points="38.167,118.231 38.167,101.98 112.004,101.98 112.004,53.124 38.032,53.124 38.032,36.823 
		128.307,36.823 128.307,118.231 	"/>
	<polygon fill="#FFFFFF" points="38.167,183.468 38.167,167.216 112.004,167.216 112.004,118.36 38.032,118.36 38.032,102.06 
		128.307,102.06 128.307,183.468 	"/>
	<rect x="5.654" y="167.216" fill="#FFFFFF" width="61.669" height="16.252"/>
	<rect x="67.323" y="4.125" fill="#FFFFFF" width="60.984" height="16.251"/>
</g>
<g>
	<g>
		<path fill="#FFFFFF" d="M11.989,194.627c0.388,0,0.806,0.005,1.252,0.013c0.447,0.009,0.89,0.034,1.329,0.076
			c0.438,0.042,0.848,0.105,1.227,0.189c0.38,0.085,0.704,0.211,0.974,0.379c0.591,0.355,1.093,0.845,1.507,1.468
			c0.412,0.624,0.619,1.392,0.619,2.303c0,0.962-0.231,1.792-0.695,2.493c-0.465,0.699-1.127,1.218-1.986,1.555v0.051
			c1.113,0.236,1.965,0.742,2.555,1.519c0.591,0.776,0.887,1.721,0.887,2.834c0,0.657-0.119,1.299-0.354,1.923
			c-0.236,0.624-0.587,1.176-1.05,1.657c-0.465,0.48-1.037,0.868-1.721,1.163c-0.684,0.296-1.473,0.443-2.366,0.443H5.435v-18.065
			H11.989z M12.646,202.395c1.367,0,2.35-0.24,2.947-0.722c0.6-0.48,0.898-1.201,0.898-2.162c0-0.641-0.1-1.146-0.303-1.519
			c-0.203-0.37-0.48-0.657-0.836-0.86c-0.354-0.203-0.762-0.333-1.227-0.392c-0.464-0.06-0.957-0.089-1.48-0.089H7.839v5.743H12.646
			z M13.861,210.669c1.063,0,1.893-0.287,2.492-0.861c0.6-0.573,0.898-1.365,0.898-2.378c0-0.591-0.109-1.079-0.329-1.468
			c-0.219-0.388-0.511-0.695-0.873-0.924c-0.363-0.228-0.78-0.388-1.252-0.48c-0.473-0.092-0.961-0.139-1.468-0.139h-5.49v6.25
			H13.861z"/>
		<path fill="#FFFFFF" d="M35.342,211.364c-1.231,1.155-2.985,1.732-5.263,1.732c-2.328,0-4.146-0.552-5.453-1.657
			c-1.307-1.104-1.96-2.862-1.96-5.275v-11.537h2.403v11.537c0,1.62,0.43,2.847,1.29,3.682s2.101,1.253,3.72,1.253
			c1.535,0,2.702-0.418,3.504-1.253c0.801-0.835,1.202-2.062,1.202-3.682v-11.537h2.403v11.537
			C37.189,208.476,36.573,210.209,35.342,211.364z"/>
		<path fill="#FFFFFF" d="M50.08,197.094c-0.801-0.581-1.826-0.873-3.074-0.873c-0.506,0-1.003,0.051-1.492,0.152
			c-0.49,0.101-0.924,0.271-1.304,0.506c-0.379,0.236-0.683,0.553-0.91,0.948c-0.228,0.396-0.342,0.891-0.342,1.48
			c0,0.557,0.164,1.008,0.493,1.354s0.768,0.629,1.315,0.848c0.548,0.22,1.168,0.401,1.86,0.545
			c0.691,0.143,1.395,0.299,2.112,0.468c0.717,0.169,1.421,0.366,2.112,0.595c0.691,0.227,1.311,0.535,1.86,0.923
			c0.548,0.389,0.986,0.878,1.315,1.468c0.329,0.591,0.494,1.332,0.494,2.227c0,0.961-0.216,1.783-0.646,2.467
			c-0.43,0.684-0.982,1.239-1.656,1.67c-0.676,0.43-1.431,0.742-2.266,0.936c-0.834,0.194-1.665,0.291-2.492,0.291
			c-1.012,0-1.97-0.127-2.871-0.379c-0.903-0.253-1.695-0.637-2.379-1.151s-1.223-1.173-1.619-1.974s-0.595-1.75-0.595-2.846h2.277
			c0,0.759,0.147,1.412,0.443,1.961c0.295,0.548,0.683,0.999,1.164,1.353c0.48,0.354,1.041,0.616,1.682,0.784
			c0.641,0.17,1.299,0.254,1.975,0.254c0.538,0,1.083-0.051,1.631-0.152s1.042-0.273,1.48-0.519
			c0.438-0.244,0.792-0.577,1.063-0.999c0.27-0.422,0.404-0.961,0.404-1.62c0-0.624-0.164-1.129-0.493-1.518
			c-0.328-0.388-0.768-0.704-1.315-0.949c-0.548-0.244-1.168-0.442-1.859-0.595c-0.692-0.15-1.396-0.307-2.112-0.468
			c-0.717-0.16-1.422-0.345-2.113-0.556s-1.312-0.49-1.86-0.836c-0.547-0.346-0.986-0.793-1.314-1.34
			c-0.329-0.549-0.494-1.236-0.494-2.063c0-0.911,0.186-1.699,0.558-2.366c0.37-0.666,0.863-1.214,1.479-1.645
			c0.616-0.431,1.316-0.75,2.101-0.962c0.785-0.21,1.59-0.316,2.417-0.316c0.927,0,1.787,0.11,2.581,0.33
			c0.792,0.219,1.487,0.564,2.087,1.037c0.599,0.473,1.07,1.066,1.417,1.783c0.346,0.717,0.535,1.573,0.569,2.568h-2.277
			C51.349,198.616,50.88,197.677,50.08,197.094z"/>
		<path fill="#FFFFFF" d="M59.935,194.627v18.065h-2.404v-18.065H59.935z"/>
		<path fill="#FFFFFF" d="M66.512,194.627l9.514,14.649h0.05v-14.649h2.277v18.065h-2.631l-9.438-14.498h-0.051v14.498h-2.277
			v-18.065H66.512z"/>
		<path fill="#FFFFFF" d="M94.722,194.627v2.024H84.654v5.743h9.386v2.024h-9.386v6.25h10.145v2.023H82.25v-18.065H94.722z"/>
		<path fill="#FFFFFF" d="M106.753,197.094c-0.801-0.581-1.826-0.873-3.074-0.873c-0.506,0-1.004,0.051-1.492,0.152
			c-0.49,0.101-0.924,0.271-1.304,0.506c-0.379,0.236-0.683,0.553-0.911,0.948c-0.228,0.396-0.341,0.891-0.341,1.48
			c0,0.557,0.165,1.008,0.493,1.354s0.768,0.629,1.316,0.848c0.548,0.22,1.167,0.401,1.859,0.545
			c0.691,0.143,1.395,0.299,2.112,0.468c0.716,0.169,1.421,0.366,2.112,0.595c0.692,0.227,1.312,0.535,1.859,0.923
			c0.549,0.389,0.987,0.878,1.316,1.468c0.328,0.591,0.493,1.332,0.493,2.227c0,0.961-0.215,1.783-0.646,2.467
			c-0.43,0.684-0.982,1.239-1.656,1.67c-0.675,0.43-1.43,0.742-2.266,0.936c-0.835,0.194-1.666,0.291-2.492,0.291
			c-1.012,0-1.969-0.127-2.871-0.379c-0.902-0.253-1.695-0.637-2.378-1.151c-0.684-0.515-1.224-1.173-1.62-1.974
			s-0.594-1.75-0.594-2.846h2.276c0,0.759,0.147,1.412,0.442,1.961c0.296,0.548,0.684,0.999,1.164,1.353
			c0.48,0.354,1.042,0.616,1.684,0.784c0.641,0.17,1.298,0.254,1.973,0.254c0.54,0,1.084-0.051,1.633-0.152
			c0.548-0.102,1.041-0.273,1.479-0.519c0.438-0.244,0.793-0.577,1.063-0.999c0.269-0.422,0.404-0.961,0.404-1.62
			c0-0.624-0.164-1.129-0.493-1.518c-0.329-0.388-0.768-0.704-1.315-0.949c-0.549-0.244-1.169-0.442-1.859-0.595
			c-0.693-0.15-1.396-0.307-2.113-0.468c-0.718-0.16-1.421-0.345-2.113-0.556c-0.691-0.211-1.312-0.49-1.859-0.836
			c-0.549-0.346-0.986-0.793-1.315-1.34c-0.329-0.549-0.493-1.236-0.493-2.063c0-0.911,0.186-1.699,0.556-2.366
			c0.371-0.666,0.865-1.214,1.48-1.645c0.616-0.431,1.315-0.75,2.101-0.962c0.784-0.21,1.59-0.316,2.416-0.316
			c0.928,0,1.787,0.11,2.58,0.33c0.793,0.219,1.489,0.564,2.088,1.037s1.071,1.066,1.416,1.783c0.346,0.717,0.536,1.573,0.57,2.568
			h-2.277C108.023,198.616,107.555,197.677,106.753,197.094z"/>
		<path fill="#FFFFFF" d="M123.148,197.094c-0.801-0.581-1.824-0.873-3.073-0.873c-0.506,0-1.004,0.051-1.493,0.152
			c-0.489,0.101-0.924,0.271-1.303,0.506c-0.38,0.236-0.684,0.553-0.911,0.948c-0.228,0.396-0.342,0.891-0.342,1.48
			c0,0.557,0.164,1.008,0.494,1.354c0.328,0.346,0.767,0.629,1.315,0.848c0.547,0.22,1.168,0.401,1.859,0.545
			c0.691,0.143,1.396,0.299,2.113,0.468s1.42,0.366,2.112,0.595c0.691,0.227,1.312,0.535,1.859,0.923
			c0.548,0.389,0.987,0.878,1.315,1.468c0.329,0.591,0.494,1.332,0.494,2.227c0,0.961-0.216,1.783-0.646,2.467
			s-0.982,1.239-1.657,1.67c-0.675,0.43-1.43,0.742-2.264,0.936c-0.836,0.194-1.667,0.291-2.493,0.291
			c-1.012,0-1.97-0.127-2.872-0.379c-0.902-0.253-1.695-0.637-2.378-1.151s-1.224-1.173-1.619-1.974
			c-0.396-0.801-0.595-1.75-0.595-2.846h2.277c0,0.759,0.147,1.412,0.442,1.961c0.296,0.548,0.684,0.999,1.164,1.353
			c0.48,0.354,1.041,0.616,1.683,0.784c0.641,0.17,1.299,0.254,1.973,0.254c0.541,0,1.084-0.051,1.633-0.152
			c0.548-0.102,1.041-0.273,1.48-0.519c0.438-0.244,0.793-0.577,1.063-0.999s0.404-0.961,0.404-1.62
			c0-0.624-0.164-1.129-0.493-1.518c-0.329-0.388-0.768-0.704-1.315-0.949c-0.549-0.244-1.168-0.442-1.86-0.595
			c-0.69-0.15-1.396-0.307-2.112-0.468c-0.717-0.16-1.422-0.345-2.112-0.556c-0.692-0.211-1.312-0.49-1.86-0.836
			c-0.548-0.346-0.986-0.793-1.315-1.34c-0.329-0.549-0.493-1.236-0.493-2.063c0-0.911,0.186-1.699,0.557-2.366
			c0.371-0.666,0.864-1.214,1.48-1.645c0.615-0.431,1.316-0.75,2.1-0.962c0.785-0.21,1.59-0.316,2.416-0.316
			c0.928,0,1.788,0.11,2.581,0.33c0.792,0.219,1.488,0.564,2.087,1.037c0.6,0.473,1.072,1.066,1.417,1.783
			c0.347,0.717,0.536,1.573,0.569,2.568h-2.276C124.417,198.616,123.949,197.677,123.148,197.094z"/>
	</g>
	<g>
		<path fill="#FFFFFF" d="M16.906,233.663c-0.72,0.372-2.229,0.743-4.133,0.743c-4.411,0-7.708-2.786-7.708-7.94
			c0-4.921,3.319-8.218,8.172-8.218c1.927,0,3.181,0.418,3.715,0.696l-0.511,1.648c-0.742-0.371-1.834-0.65-3.134-0.65
			c-3.669,0-6.106,2.345-6.106,6.454c0,3.854,2.205,6.292,5.99,6.292c1.253,0,2.508-0.256,3.32-0.65L16.906,233.663z"/>
		<path fill="#FFFFFF" d="M31.646,226.165c0,5.362-3.272,8.241-7.266,8.241c-4.156,0-7.035-3.228-7.035-7.963
			c0-4.968,3.064-8.219,7.244-8.219C28.884,218.225,31.646,221.498,31.646,226.165z M19.481,226.396
			c0,3.366,1.812,6.361,5.015,6.361c3.204,0,5.015-2.948,5.015-6.5c0-3.134-1.625-6.385-4.99-6.385
			C21.153,219.873,19.481,222.983,19.481,226.396z"/>
		<path fill="#FFFFFF" d="M33.573,234.151v-15.648h2.229l4.992,7.917c1.137,1.835,2.065,3.482,2.785,5.085l0.069-0.023
			c-0.186-2.09-0.232-3.993-0.232-6.432v-6.547h1.904v15.648h-2.043l-4.969-7.94c-1.091-1.741-2.136-3.528-2.901-5.224l-0.07,0.023
			c0.116,1.973,0.14,3.854,0.14,6.454v6.687H33.573z"/>
		<path fill="#FFFFFF" d="M47.896,231.69c0.905,0.58,2.205,1.021,3.598,1.021c2.067,0,3.274-1.092,3.274-2.67
			c0-1.439-0.837-2.299-2.949-3.088c-2.554-0.929-4.132-2.275-4.132-4.458c0-2.437,2.02-4.248,5.061-4.248
			c1.579,0,2.764,0.372,3.437,0.766l-0.558,1.648c-0.487-0.302-1.531-0.743-2.948-0.743c-2.136,0-2.948,1.277-2.948,2.346
			c0,1.463,0.952,2.182,3.111,3.018c2.646,1.021,3.969,2.299,3.969,4.598c0,2.414-1.764,4.526-5.455,4.526
			c-1.509,0-3.157-0.464-3.993-1.021L47.896,231.69z"/>
		<path fill="#FFFFFF" d="M60.919,218.503v9.287c0,3.482,1.556,4.968,3.646,4.968c2.298,0,3.808-1.532,3.808-4.968v-9.287h2.042
			v9.147c0,4.806-2.53,6.756-5.921,6.756c-3.203,0-5.617-1.811-5.617-6.687v-9.217H60.919z"/>
		<path fill="#FFFFFF" d="M73.2,218.503h2.042v13.953h6.687v1.695H73.2V218.503z"/>
		<path fill="#FFFFFF" d="M84.413,220.222h-4.76v-1.719h11.585v1.719h-4.782v13.93h-2.043V220.222z"/>
		<path fill="#FFFFFF" d="M93.072,229.229l-1.625,4.922h-2.09l5.339-15.648h2.415l5.34,15.648h-2.159l-1.672-4.922H93.072z
			 M98.225,227.65l-1.556-4.503c-0.348-1.022-0.58-1.951-0.813-2.856h-0.046c-0.232,0.905-0.465,1.88-0.79,2.833l-1.532,4.526
			H98.225z"/>
		<path fill="#FFFFFF" d="M104.052,234.151v-15.648h2.229l4.991,7.917c1.138,1.835,2.065,3.482,2.786,5.085l0.07-0.023
			c-0.187-2.09-0.232-3.993-0.232-6.432v-6.547h1.903v15.648h-2.044l-4.968-7.94c-1.091-1.741-2.136-3.528-2.901-5.224l-0.07,0.023
			c0.116,1.973,0.141,3.854,0.141,6.454v6.687H104.052z"/>
		<path fill="#FFFFFF" d="M121.602,220.222h-4.759v-1.719h11.584v1.719h-4.783v13.93h-2.042V220.222z"/>
	</g>
	<g>
		<path fill="#FFFFFF" d="M19.88,246.819c0,5.547-3.385,8.525-7.516,8.525c-4.299,0-7.276-3.338-7.276-8.236
			c0-5.14,3.17-8.501,7.492-8.501C17.023,238.607,19.88,241.993,19.88,246.819z M7.297,247.06c0,3.482,1.873,6.58,5.188,6.58
			c3.313,0,5.187-3.05,5.187-6.725c0-3.241-1.682-6.604-5.162-6.604C9.027,240.312,7.297,243.529,7.297,247.06z"/>
		<path fill="#FFFFFF" d="M21.875,255.08v-16.185h2.305l5.163,8.188c1.177,1.897,2.137,3.602,2.882,5.259l0.072-0.024
			c-0.192-2.161-0.24-4.13-0.24-6.651v-6.771h1.969v16.185h-2.113l-5.139-8.212c-1.129-1.802-2.209-3.65-3.002-5.404l-0.072,0.024
			c0.12,2.041,0.145,3.986,0.145,6.677v6.915H21.875z"/>
		<path fill="#FFFFFF" d="M41.325,239.136c1.272-0.217,2.786-0.361,4.442-0.361c3.002,0,5.14,0.721,6.557,2.018
			c1.464,1.32,2.305,3.194,2.305,5.812c0,2.642-0.841,4.803-2.329,6.292c-1.537,1.512-4.034,2.328-7.18,2.328
			c-1.514,0-2.737-0.071-3.795-0.191V239.136z M43.415,253.447c0.527,0.071,1.297,0.097,2.112,0.097c4.49,0,6.893-2.498,6.893-6.869
			c0.023-3.817-2.137-6.243-6.557-6.243c-1.08,0-1.896,0.097-2.448,0.217V253.447z"/>
		<path fill="#FFFFFF" d="M64.955,247.491h-6.268v5.836h7.012v1.753h-9.125v-16.185h8.766v1.753h-6.652v5.114h6.268V247.491z"/>
		<path fill="#FFFFFF" d="M81.332,247.972c-0.119-2.257-0.264-4.994-0.264-6.987h-0.049c-0.576,1.873-1.224,3.914-2.041,6.147
			l-2.857,7.853h-1.584l-2.643-7.708c-0.768-2.307-1.393-4.371-1.85-6.292h-0.047c-0.049,2.017-0.168,4.706-0.313,7.155l-0.432,6.94
			H67.26l1.128-16.185h2.666l2.762,7.828c0.672,1.993,1.2,3.77,1.632,5.451h0.049c0.432-1.633,1.009-3.41,1.729-5.451l2.881-7.828
			h2.666l1.008,16.185h-2.064L81.332,247.972z"/>
		<path fill="#FFFFFF" d="M88.656,249.989l-1.681,5.091h-2.161l5.522-16.185h2.497l5.523,16.185h-2.232l-1.729-5.091H88.656z
			 M93.987,248.356l-1.609-4.658c-0.359-1.057-0.6-2.018-0.84-2.954H91.49c-0.24,0.937-0.48,1.944-0.816,2.93l-1.585,4.683H93.987z"
			/>
		<path fill="#FFFFFF" d="M100.015,255.08v-16.185h2.305l5.163,8.188c1.177,1.897,2.138,3.602,2.882,5.259l0.072-0.024
			c-0.192-2.161-0.24-4.13-0.24-6.651v-6.771h1.969v16.185h-2.113l-5.139-8.212c-1.129-1.802-2.21-3.65-3.002-5.404l-0.071,0.024
			c0.119,2.041,0.144,3.986,0.144,6.677v6.915H100.015z"/>
		<path fill="#FFFFFF" d="M115.095,239.136c1.272-0.217,2.786-0.361,4.442-0.361c3.002,0,5.139,0.721,6.556,2.018
			c1.465,1.32,2.306,3.194,2.306,5.812c0,2.642-0.841,4.803-2.329,6.292c-1.538,1.512-4.035,2.328-7.181,2.328
			c-1.513,0-2.737-0.071-3.794-0.191V239.136z M117.185,253.447c0.527,0.071,1.296,0.097,2.113,0.097
			c4.49,0,6.891-2.498,6.891-6.869c0.024-3.817-2.137-6.243-6.555-6.243c-1.081,0-1.897,0.097-2.449,0.217V253.447z"/>
	</g>
</g>
</svg>
