<?xml version="1.0" encoding="utf-8"?>
<!-- Generator: Adobe Illustrator 15.0.0, SVG Export Plug-In . SVG Version: 6.00 Build 0)  -->
<!DOCTYPE svg PUBLIC "-//W3C//DTD SVG 1.1//EN" "http://www.w3.org/Graphics/SVG/1.1/DTD/svg11.dtd">
<svg version="1.1" id="Layer_1" xmlns="http://www.w3.org/2000/svg" xmlns:xlink="http://www.w3.org/1999/xlink" x="0px" y="0px"
	 width="325.353px" height="153.521px" viewBox="0 0 325.353 153.521" enable-background="new 0 0 325.353 153.521"
	 xml:space="preserve">
<g>
	<g>
		<polygon fill="#FFFFFF" points="99.039,142.472 99.039,94.037 99.039,82.03 99.039,33.594 32.013,33.594 32.013,45.696 
			86.935,45.696 86.935,81.97 32.113,81.97 32.113,82.03 32.013,82.03 32.013,94.132 86.935,94.132 86.935,130.406 7.973,130.406 
			7.973,142.472 		"/>
		<polygon fill="#FFFFFF" points="99.039,21.383 99.039,9.317 7.973,9.304 7.973,57.734 7.973,69.746 7.973,118.177 74.431,118.177 
			74.431,106.073 20.076,106.073 20.076,69.8 74.431,69.8 74.431,69.746 74.431,57.734 74.431,57.642 20.076,57.642 20.076,21.37 		
			"/>
	</g>
	<g>
		<g>
			<path fill="#FFFFFF" d="M114.314,127.45v5.723h0.042c0.298-0.616,0.771-1.061,1.413-1.34c0.645-0.279,1.351-0.416,2.119-0.416
				c0.858,0,1.604,0.156,2.24,0.471c0.637,0.313,1.168,0.738,1.585,1.273c0.423,0.536,0.741,1.154,0.955,1.854
				c0.216,0.698,0.323,1.444,0.323,2.227c0,0.788-0.104,1.531-0.311,2.229c-0.208,0.699-0.521,1.31-0.945,1.832
				c-0.422,0.523-0.948,0.932-1.584,1.23c-0.636,0.301-1.375,0.452-2.218,0.452c-0.271,0-0.576-0.029-0.911-0.086
				c-0.334-0.059-0.67-0.149-0.996-0.278c-0.328-0.129-0.641-0.304-0.932-0.525c-0.293-0.221-0.538-0.497-0.738-0.825h-0.042v1.479
				h-1.823V127.45H114.314z M120.857,135.604c-0.134-0.491-0.341-0.931-0.62-1.317c-0.278-0.385-0.635-0.692-1.075-0.922
				c-0.433-0.229-0.943-0.342-1.531-0.342c-0.614,0-1.133,0.119-1.563,0.364c-0.426,0.243-0.777,0.56-1.047,0.954
				c-0.273,0.393-0.471,0.84-0.592,1.338c-0.12,0.502-0.184,1.006-0.184,1.521c0,0.544,0.068,1.068,0.195,1.573
				c0.126,0.509,0.332,0.955,0.609,1.34c0.281,0.387,0.642,0.697,1.082,0.934c0.443,0.236,0.978,0.353,1.608,0.353
				c0.627,0,1.15-0.121,1.573-0.363c0.421-0.244,0.76-0.564,1.02-0.965c0.255-0.399,0.442-0.855,0.557-1.371
				c0.114-0.513,0.171-1.042,0.171-1.585C121.062,136.601,120.994,136.097,120.857,135.604z"/>
		</g>
		<g>
			<path fill="#FFFFFF" d="M133.232,142.751v-1.758h-0.042c-0.387,0.687-0.877,1.189-1.479,1.51
				c-0.601,0.322-1.308,0.483-2.12,0.483c-0.73,0-1.336-0.098-1.823-0.288c-0.484-0.195-0.878-0.471-1.178-0.826
				c-0.3-0.357-0.509-0.783-0.631-1.275c-0.123-0.493-0.183-1.041-0.183-1.64v-7.285h1.821v7.499c0,0.686,0.2,1.23,0.599,1.629
				c0.4,0.4,0.951,0.6,1.653,0.6c0.554,0,1.038-0.084,1.445-0.256s0.745-0.416,1.018-0.729c0.27-0.313,0.474-0.681,0.609-1.103
				c0.134-0.423,0.204-0.884,0.204-1.381v-6.259h1.822v11.079H133.232z"/>
		</g>
		<g>
			<path fill="#FFFFFF" d="M139.724,140.275c0.174,0.278,0.398,0.5,0.675,0.665c0.28,0.164,0.593,0.281,0.943,0.352
				c0.352,0.072,0.712,0.107,1.082,0.107c0.289,0,0.585-0.02,0.898-0.063c0.314-0.045,0.604-0.123,0.869-0.238
				c0.267-0.113,0.481-0.281,0.653-0.502c0.172-0.223,0.258-0.504,0.258-0.848c0-0.47-0.179-0.826-0.537-1.07
				c-0.356-0.242-0.802-0.439-1.34-0.59c-0.534-0.149-1.116-0.285-1.746-0.406c-0.629-0.123-1.211-0.293-1.747-0.515
				c-0.535-0.224-0.98-0.532-1.34-0.931c-0.357-0.4-0.533-0.958-0.533-1.672c0-0.559,0.125-1.036,0.374-1.438
				c0.251-0.398,0.57-0.725,0.964-0.974c0.394-0.249,0.835-0.435,1.33-0.559c0.495-0.12,0.982-0.179,1.467-0.179
				c0.628,0,1.208,0.053,1.735,0.158c0.528,0.107,0.998,0.293,1.403,0.559c0.409,0.264,0.732,0.621,0.975,1.072
				c0.244,0.449,0.387,1.009,0.429,1.68h-1.821c-0.028-0.355-0.123-0.652-0.279-0.889c-0.156-0.237-0.355-0.426-0.601-0.568
				c-0.243-0.141-0.511-0.246-0.804-0.311c-0.293-0.063-0.587-0.096-0.886-0.096c-0.273,0-0.548,0.02-0.826,0.064
				c-0.28,0.041-0.532,0.119-0.76,0.225c-0.23,0.107-0.414,0.249-0.56,0.428c-0.143,0.18-0.211,0.412-0.211,0.697
				c0,0.314,0.109,0.576,0.331,0.781c0.221,0.207,0.502,0.38,0.845,0.516c0.344,0.134,0.73,0.252,1.158,0.341
				c0.427,0.093,0.859,0.19,1.285,0.29c0.458,0.102,0.905,0.222,1.34,0.365c0.437,0.143,0.821,0.334,1.159,0.566
				c0.334,0.236,0.607,0.534,0.814,0.892c0.207,0.356,0.311,0.799,0.311,1.328c0,0.671-0.14,1.227-0.417,1.669
				c-0.281,0.444-0.645,0.801-1.095,1.072c-0.447,0.271-0.957,0.461-1.52,0.568c-0.565,0.105-1.125,0.161-1.681,0.161
				c-0.617,0-1.202-0.063-1.757-0.194c-0.56-0.128-1.051-0.338-1.479-0.631c-0.432-0.293-0.774-0.678-1.031-1.156
				c-0.255-0.481-0.4-1.063-0.429-1.748h1.823C139.46,139.659,139.554,139.997,139.724,140.275z"/>
		</g>
		<g>
			<path fill="#FFFFFF" d="M149.795,129.68v-2.229h1.823v2.229H149.795z M151.618,131.672v11.079h-1.823v-11.079H151.618z"/>
		</g>
		<g>
			<path fill="#FFFFFF" d="M156.802,131.672v1.757h0.042c0.757-1.343,1.958-2.012,3.602-2.012c0.728,0,1.334,0.099,1.82,0.299
				c0.485,0.199,0.88,0.479,1.179,0.835c0.302,0.357,0.512,0.782,0.632,1.276c0.117,0.491,0.182,1.038,0.182,1.637v7.287h-1.819
				v-7.502c0-0.684-0.201-1.229-0.604-1.627c-0.398-0.398-0.948-0.6-1.648-0.6c-0.558,0-1.04,0.086-1.446,0.256
				c-0.407,0.171-0.745,0.416-1.018,0.729c-0.27,0.314-0.474,0.684-0.611,1.105c-0.134,0.42-0.204,0.882-0.204,1.382v6.257h-1.82
				v-11.079H156.802z"/>
		</g>
		<g>
			<path fill="#FFFFFF" d="M175.489,142.043c-0.828,0.628-1.874,0.943-3.131,0.943c-0.887,0-1.654-0.145-2.305-0.429
				c-0.649-0.286-1.195-0.686-1.637-1.2c-0.445-0.515-0.776-1.129-0.998-1.842c-0.221-0.714-0.346-1.495-0.375-2.336
				c0-0.843,0.131-1.614,0.385-2.314c0.259-0.7,0.619-1.308,1.083-1.823c0.467-0.513,1.015-0.911,1.651-1.198
				c0.635-0.287,1.33-0.427,2.09-0.427c0.983,0,1.803,0.202,2.451,0.607c0.652,0.407,1.172,0.926,1.565,1.557
				c0.393,0.627,0.663,1.312,0.813,2.056c0.151,0.743,0.211,1.45,0.183,2.122h-8.29c-0.017,0.485,0.039,0.946,0.17,1.381
				c0.129,0.436,0.334,0.822,0.621,1.156c0.287,0.337,0.648,0.606,1.092,0.803c0.444,0.201,0.963,0.301,1.564,0.301
				c0.771,0,1.402-0.178,1.898-0.535c0.491-0.355,0.816-0.899,0.975-1.629h1.799C176.852,140.478,176.317,141.416,175.489,142.043z
				 M175.048,134.93c-0.164-0.386-0.384-0.72-0.666-0.996c-0.276-0.278-0.607-0.501-0.983-0.665
				c-0.378-0.164-0.797-0.246-1.255-0.246c-0.471,0-0.896,0.082-1.273,0.246c-0.381,0.164-0.703,0.39-0.975,0.676
				c-0.272,0.283-0.488,0.617-0.645,0.996c-0.157,0.379-0.25,0.782-0.275,1.209h6.36
				C175.308,135.723,175.212,135.315,175.048,134.93z"/>
		</g>
		<g>
			<path fill="#FFFFFF" d="M181.187,140.275c0.172,0.278,0.396,0.5,0.676,0.665c0.277,0.164,0.592,0.281,0.941,0.352
				c0.35,0.072,0.71,0.107,1.08,0.107c0.289,0,0.59-0.02,0.903-0.063c0.313-0.045,0.603-0.123,0.866-0.238
				c0.266-0.113,0.482-0.281,0.653-0.502c0.175-0.223,0.258-0.504,0.258-0.848c0-0.47-0.178-0.826-0.536-1.07
				c-0.357-0.242-0.803-0.439-1.339-0.59c-0.535-0.149-1.117-0.285-1.747-0.406c-0.627-0.123-1.212-0.293-1.746-0.515
				c-0.535-0.224-0.979-0.532-1.34-0.931c-0.357-0.4-0.531-0.958-0.531-1.672c0-0.559,0.123-1.036,0.373-1.438
				c0.248-0.398,0.571-0.725,0.963-0.974c0.393-0.249,0.835-0.435,1.327-0.559c0.495-0.12,0.985-0.179,1.47-0.179
				c0.627,0,1.208,0.053,1.735,0.158c0.528,0.107,0.997,0.293,1.405,0.559c0.404,0.264,0.729,0.621,0.974,1.072
				c0.241,0.449,0.385,1.009,0.429,1.68h-1.822c-0.027-0.355-0.123-0.652-0.279-0.889c-0.156-0.237-0.357-0.426-0.601-0.568
				c-0.24-0.141-0.509-0.246-0.802-0.311c-0.292-0.063-0.588-0.096-0.891-0.096c-0.271,0-0.545,0.02-0.824,0.064
				c-0.277,0.041-0.531,0.119-0.76,0.225c-0.229,0.107-0.414,0.249-0.558,0.428c-0.145,0.18-0.214,0.412-0.214,0.697
				c0,0.314,0.11,0.576,0.332,0.781c0.222,0.207,0.503,0.38,0.846,0.516c0.344,0.134,0.729,0.252,1.158,0.341
				c0.428,0.093,0.857,0.19,1.286,0.29c0.456,0.102,0.901,0.222,1.339,0.365c0.434,0.143,0.822,0.334,1.156,0.566
				c0.336,0.236,0.606,0.534,0.814,0.892c0.206,0.356,0.311,0.799,0.311,1.328c0,0.671-0.14,1.227-0.418,1.669
				c-0.278,0.444-0.642,0.801-1.092,1.072c-0.451,0.271-0.957,0.461-1.52,0.568c-0.567,0.105-1.127,0.161-1.686,0.161
				c-0.613,0-1.199-0.063-1.756-0.194c-0.558-0.128-1.051-0.338-1.479-0.631c-0.43-0.293-0.773-0.678-1.027-1.156
				c-0.26-0.481-0.402-1.063-0.43-1.748h1.819C180.923,139.659,181.015,139.997,181.187,140.275z"/>
		</g>
		<g>
			<path fill="#FFFFFF" d="M192.543,140.275c0.171,0.278,0.396,0.5,0.675,0.665c0.277,0.164,0.594,0.281,0.944,0.352
				c0.351,0.072,0.708,0.107,1.081,0.107c0.287,0,0.586-0.02,0.899-0.063c0.314-0.045,0.602-0.123,0.866-0.238
				c0.267-0.113,0.482-0.281,0.656-0.502c0.169-0.223,0.255-0.504,0.255-0.848c0-0.47-0.177-0.826-0.535-1.07
				c-0.357-0.242-0.802-0.439-1.339-0.59c-0.535-0.149-1.117-0.285-1.745-0.406c-0.63-0.123-1.212-0.293-1.746-0.515
				c-0.535-0.224-0.983-0.532-1.34-0.931c-0.356-0.4-0.536-0.958-0.536-1.672c0-0.559,0.125-1.036,0.375-1.438
				c0.248-0.398,0.569-0.725,0.966-0.974c0.392-0.249,0.833-0.435,1.329-0.559c0.491-0.12,0.979-0.179,1.464-0.179
				c0.632,0,1.209,0.053,1.736,0.158c0.529,0.107,0.998,0.293,1.406,0.559c0.407,0.264,0.73,0.621,0.973,1.072
				c0.243,0.449,0.385,1.009,0.431,1.68h-1.82c-0.029-0.355-0.124-0.652-0.281-0.889c-0.156-0.237-0.357-0.426-0.6-0.568
				c-0.242-0.141-0.511-0.246-0.805-0.311c-0.292-0.063-0.59-0.096-0.887-0.096c-0.273,0-0.55,0.02-0.827,0.064
				c-0.278,0.041-0.534,0.119-0.76,0.225c-0.229,0.107-0.414,0.249-0.557,0.428c-0.144,0.18-0.213,0.412-0.213,0.697
				c0,0.314,0.109,0.576,0.329,0.781c0.222,0.207,0.505,0.38,0.85,0.516c0.34,0.134,0.727,0.252,1.154,0.341
				c0.428,0.093,0.857,0.19,1.286,0.29c0.456,0.102,0.904,0.222,1.339,0.365c0.436,0.143,0.819,0.334,1.158,0.566
				c0.334,0.236,0.607,0.534,0.813,0.892c0.209,0.356,0.311,0.799,0.311,1.328c0,0.671-0.138,1.227-0.416,1.669
				c-0.279,0.444-0.644,0.801-1.094,1.072c-0.449,0.271-0.957,0.461-1.521,0.568c-0.563,0.105-1.125,0.161-1.683,0.161
				c-0.614,0-1.198-0.063-1.756-0.194c-0.557-0.128-1.052-0.338-1.479-0.631c-0.43-0.293-0.771-0.678-1.029-1.156
				c-0.254-0.481-0.398-1.063-0.427-1.748h1.818C192.278,139.659,192.371,139.997,192.543,140.275z"/>
		</g>
		<g>
			<path fill="#FFFFFF" d="M210.821,131.672v1.629h0.042c0.828-1.256,2.022-1.884,3.58-1.884c0.685,0,1.307,0.14,1.862,0.427
				c0.559,0.287,0.947,0.771,1.18,1.457c0.369-0.6,0.857-1.064,1.465-1.393c0.608-0.329,1.275-0.491,2.004-0.491
				c0.559,0,1.063,0.059,1.513,0.179c0.45,0.124,0.835,0.313,1.156,0.567c0.322,0.258,0.573,0.592,0.751,0.998
				c0.18,0.408,0.268,0.896,0.268,1.468v8.122h-1.819v-7.265c0-0.343-0.03-0.665-0.087-0.966c-0.059-0.3-0.165-0.56-0.321-0.781
				c-0.159-0.221-0.376-0.396-0.655-0.525c-0.277-0.127-0.639-0.191-1.081-0.191c-0.9,0-1.607,0.256-2.122,0.771
				c-0.515,0.514-0.77,1.199-0.77,2.057v6.9h-1.823v-7.265c0-0.356-0.032-0.684-0.097-0.984c-0.063-0.3-0.173-0.562-0.332-0.782
				c-0.157-0.224-0.369-0.393-0.631-0.514c-0.266-0.124-0.605-0.184-1.019-0.184c-0.529,0-0.984,0.105-1.362,0.32
				c-0.376,0.215-0.684,0.471-0.922,0.771c-0.234,0.301-0.404,0.611-0.513,0.932c-0.106,0.324-0.159,0.591-0.159,0.805v6.9h-1.822
				v-11.079H210.821z"/>
		</g>
		<g>
			<path fill="#FFFFFF" d="M237.841,142.706c-0.316,0.186-0.75,0.28-1.307,0.28c-0.473,0-0.846-0.132-1.125-0.397
				c-0.279-0.265-0.418-0.696-0.418-1.297c-0.502,0.601-1.083,1.032-1.745,1.297c-0.665,0.266-1.384,0.397-2.157,0.397
				c-0.498,0-0.974-0.058-1.422-0.173c-0.451-0.113-0.841-0.291-1.17-0.534c-0.329-0.242-0.588-0.56-0.781-0.954
				c-0.191-0.394-0.288-0.867-0.288-1.426c0-0.627,0.107-1.141,0.32-1.543c0.215-0.399,0.495-0.724,0.847-0.975
				c0.35-0.249,0.75-0.439,1.201-0.566c0.449-0.131,0.911-0.236,1.381-0.321c0.498-0.101,0.976-0.175,1.424-0.226
				c0.451-0.05,0.848-0.121,1.191-0.215c0.341-0.094,0.613-0.228,0.814-0.408c0.197-0.177,0.297-0.438,0.297-0.78
				c0-0.399-0.074-0.722-0.223-0.964c-0.15-0.243-0.344-0.429-0.578-0.559c-0.236-0.129-0.5-0.215-0.793-0.256
				c-0.294-0.045-0.582-0.064-0.868-0.064c-0.773,0-1.415,0.146-1.929,0.438c-0.516,0.294-0.794,0.848-0.836,1.662h-1.823
				c0.03-0.686,0.174-1.266,0.43-1.735c0.259-0.472,0.602-0.854,1.028-1.146c0.429-0.293,0.919-0.503,1.469-0.633
				c0.55-0.128,1.139-0.19,1.768-0.19c0.501,0,0.997,0.033,1.488,0.105c0.494,0.07,0.941,0.218,1.34,0.437
				c0.4,0.224,0.724,0.532,0.966,0.931c0.241,0.399,0.364,0.92,0.364,1.562v5.688c0,0.428,0.023,0.74,0.073,0.939
				s0.218,0.301,0.505,0.301c0.156,0,0.341-0.029,0.557-0.088V142.706z M234.884,137.029c-0.228,0.169-0.527,0.294-0.898,0.374
				c-0.373,0.078-0.763,0.143-1.17,0.19c-0.406,0.051-0.816,0.106-1.23,0.171s-0.787,0.169-1.117,0.309
				c-0.324,0.142-0.595,0.346-0.801,0.608c-0.208,0.263-0.312,0.62-0.312,1.076c0,0.299,0.06,0.553,0.183,0.757
				c0.119,0.207,0.278,0.373,0.471,0.502c0.192,0.128,0.417,0.22,0.675,0.275c0.257,0.06,0.526,0.088,0.813,0.088
				c0.604,0,1.115-0.082,1.543-0.247c0.43-0.163,0.779-0.368,1.052-0.618c0.27-0.248,0.472-0.518,0.599-0.811
				c0.129-0.291,0.193-0.564,0.193-0.82V137.029z"/>
		</g>
		<g>
			<path fill="#FFFFFF" d="M248.255,142.751v-1.502h-0.043c-0.302,0.614-0.773,1.058-1.416,1.329
				c-0.643,0.272-1.349,0.408-2.12,0.408c-0.856,0-1.603-0.157-2.239-0.473c-0.633-0.313-1.162-0.733-1.586-1.265
				c-0.421-0.527-0.74-1.143-0.953-1.843c-0.213-0.698-0.32-1.443-0.32-2.227c0-0.786,0.103-1.53,0.31-2.229
				c0.209-0.7,0.521-1.31,0.943-1.832c0.421-0.521,0.948-0.935,1.584-1.242c0.636-0.307,1.377-0.459,2.22-0.459
				c0.284,0,0.594,0.027,0.92,0.083c0.328,0.057,0.658,0.153,0.986,0.29c0.327,0.136,0.64,0.314,0.935,0.535
				c0.29,0.223,0.538,0.497,0.737,0.825h0.043v-5.7h1.82v15.301H248.255z M241.706,138.819c0.138,0.492,0.345,0.93,0.622,1.317
				c0.28,0.384,0.638,0.691,1.073,0.922c0.436,0.228,0.944,0.341,1.533,0.341c0.611,0,1.134-0.121,1.563-0.363
				c0.428-0.244,0.779-0.561,1.049-0.953c0.272-0.393,0.469-0.84,0.59-1.339c0.121-0.5,0.183-1.009,0.183-1.522
				c0-0.543-0.063-1.067-0.194-1.576c-0.126-0.506-0.329-0.951-0.61-1.338c-0.277-0.386-0.638-0.697-1.081-0.932
				c-0.439-0.236-0.979-0.354-1.606-0.354c-0.614,0-1.138,0.119-1.565,0.364c-0.428,0.243-0.771,0.563-1.027,0.964
				c-0.258,0.4-0.443,0.857-0.559,1.372c-0.113,0.515-0.172,1.043-0.172,1.583C241.503,137.823,241.569,138.325,241.706,138.819z"/>
		</g>
		<g>
			<path fill="#FFFFFF" d="M261.368,142.043c-0.828,0.628-1.874,0.943-3.131,0.943c-0.883,0-1.652-0.145-2.301-0.429
				c-0.652-0.286-1.197-0.686-1.639-1.2c-0.445-0.515-0.779-1.129-0.998-1.842c-0.222-0.714-0.346-1.495-0.375-2.336
				c0-0.843,0.129-1.614,0.385-2.314c0.259-0.7,0.617-1.308,1.082-1.823c0.464-0.513,1.013-0.911,1.651-1.198
				c0.636-0.287,1.331-0.427,2.089-0.427c0.984,0,1.805,0.202,2.453,0.607c0.649,0.407,1.172,0.926,1.564,1.557
				c0.393,0.627,0.664,1.312,0.817,2.056c0.148,0.743,0.207,1.45,0.179,2.122h-8.294c-0.013,0.485,0.045,0.946,0.175,1.381
				c0.127,0.436,0.333,0.822,0.62,1.156c0.286,0.337,0.651,0.606,1.093,0.803c0.443,0.201,0.963,0.301,1.564,0.301
				c0.772,0,1.403-0.178,1.898-0.535c0.491-0.355,0.814-0.899,0.973-1.629h1.801C262.731,140.478,262.194,141.416,261.368,142.043z
				 M260.929,134.93c-0.166-0.386-0.386-0.72-0.666-0.996c-0.278-0.278-0.606-0.501-0.984-0.665
				c-0.379-0.164-0.796-0.246-1.254-0.246c-0.471,0-0.896,0.082-1.275,0.246c-0.377,0.164-0.703,0.39-0.975,0.676
				c-0.271,0.283-0.484,0.617-0.642,0.996s-0.251,0.782-0.281,1.209h6.368C261.188,135.723,261.091,135.315,260.929,134.93z"/>
		</g>
		<g>
			<path fill="#FFFFFF" d="M280.117,142.043c-0.827,0.628-1.871,0.943-3.128,0.943c-0.887,0-1.655-0.145-2.307-0.429
				c-0.649-0.286-1.195-0.686-1.637-1.2c-0.445-0.515-0.775-1.129-0.997-1.842c-0.222-0.714-0.347-1.495-0.375-2.336
				c0-0.843,0.128-1.614,0.385-2.314c0.259-0.7,0.62-1.308,1.081-1.823c0.465-0.513,1.016-0.911,1.652-1.198
				c0.636-0.287,1.33-0.427,2.091-0.427c0.981,0,1.801,0.202,2.451,0.607c0.651,0.407,1.171,0.926,1.563,1.557
				c0.393,0.627,0.664,1.312,0.813,2.056c0.151,0.743,0.213,1.45,0.184,2.122h-8.292c-0.016,0.485,0.043,0.946,0.171,1.381
				c0.132,0.436,0.336,0.822,0.622,1.156c0.283,0.337,0.648,0.606,1.092,0.803c0.443,0.201,0.967,0.301,1.564,0.301
				c0.771,0,1.404-0.178,1.897-0.535c0.491-0.355,0.816-0.899,0.974-1.629h1.8C281.48,140.478,280.945,141.416,280.117,142.043z
				 M279.679,134.93c-0.167-0.386-0.387-0.72-0.666-0.996c-0.279-0.278-0.607-0.501-0.985-0.665s-0.796-0.246-1.253-0.246
				c-0.474,0-0.898,0.082-1.275,0.246c-0.379,0.164-0.703,0.39-0.976,0.676c-0.271,0.283-0.484,0.617-0.644,0.996
				c-0.158,0.379-0.248,0.782-0.277,1.209h6.363C279.938,135.723,279.843,135.315,279.679,134.93z"/>
		</g>
		<g>
			<path fill="#FFFFFF" d="M294.234,142.706c-0.312,0.186-0.748,0.28-1.306,0.28c-0.471,0-0.848-0.132-1.124-0.397
				c-0.276-0.265-0.417-0.696-0.417-1.297c-0.5,0.601-1.082,1.032-1.747,1.297c-0.663,0.266-1.384,0.397-2.155,0.397
				c-0.497,0-0.973-0.058-1.425-0.173c-0.448-0.113-0.835-0.291-1.167-0.534c-0.327-0.242-0.59-0.56-0.781-0.954
				c-0.193-0.394-0.29-0.867-0.29-1.426c0-0.627,0.108-1.141,0.321-1.543c0.216-0.399,0.498-0.724,0.848-0.975
				c0.35-0.249,0.748-0.439,1.199-0.566c0.447-0.131,0.91-0.236,1.381-0.321c0.502-0.101,0.979-0.175,1.424-0.226
				c0.451-0.05,0.848-0.121,1.191-0.215c0.342-0.094,0.612-0.228,0.813-0.408c0.201-0.177,0.302-0.438,0.302-0.78
				c0-0.399-0.076-0.722-0.226-0.964c-0.149-0.243-0.343-0.429-0.578-0.559c-0.236-0.129-0.5-0.215-0.793-0.256
				c-0.294-0.045-0.581-0.064-0.869-0.064c-0.771,0-1.413,0.146-1.928,0.438c-0.514,0.294-0.792,0.848-0.836,1.662h-1.819
				c0.025-0.686,0.17-1.266,0.426-1.735c0.258-0.472,0.602-0.854,1.029-1.146c0.429-0.293,0.918-0.503,1.469-0.633
				c0.55-0.128,1.137-0.19,1.768-0.19c0.498,0,0.996,0.033,1.488,0.105c0.494,0.07,0.94,0.218,1.339,0.437
				c0.402,0.224,0.722,0.532,0.966,0.931c0.242,0.399,0.363,0.92,0.363,1.562v5.688c0,0.428,0.027,0.74,0.076,0.939
				s0.219,0.301,0.504,0.301c0.155,0,0.341-0.029,0.554-0.088V142.706z M291.281,137.029c-0.23,0.169-0.53,0.294-0.902,0.374
				c-0.372,0.078-0.761,0.143-1.169,0.19c-0.408,0.051-0.814,0.106-1.23,0.171c-0.415,0.064-0.785,0.169-1.113,0.309
				c-0.33,0.142-0.597,0.346-0.806,0.608c-0.207,0.263-0.31,0.62-0.31,1.076c0,0.299,0.059,0.553,0.184,0.757
				c0.121,0.207,0.277,0.373,0.471,0.502c0.195,0.128,0.417,0.22,0.675,0.275c0.259,0.06,0.528,0.088,0.813,0.088
				c0.601,0,1.114-0.082,1.544-0.247c0.429-0.163,0.78-0.368,1.05-0.618c0.273-0.248,0.473-0.518,0.602-0.811
				c0.128-0.291,0.193-0.564,0.193-0.82V137.029z"/>
		</g>
		<g>
			<path fill="#FFFFFF" d="M297.965,140.275c0.171,0.278,0.396,0.5,0.675,0.665c0.28,0.164,0.594,0.281,0.942,0.352
				c0.353,0.072,0.712,0.107,1.083,0.107c0.286,0,0.584-0.02,0.9-0.063c0.313-0.045,0.602-0.123,0.866-0.238
				c0.264-0.113,0.483-0.281,0.654-0.502c0.171-0.223,0.255-0.504,0.255-0.848c0-0.47-0.176-0.826-0.531-1.07
				c-0.359-0.242-0.806-0.439-1.342-0.59c-0.534-0.149-1.116-0.285-1.744-0.406c-0.631-0.123-1.211-0.293-1.75-0.515
				c-0.534-0.224-0.982-0.532-1.338-0.931c-0.355-0.4-0.535-0.958-0.535-1.672c0-0.559,0.125-1.036,0.373-1.438
				c0.253-0.398,0.574-0.725,0.966-0.974c0.394-0.249,0.836-0.435,1.329-0.559c0.491-0.12,0.982-0.179,1.467-0.179
				c0.629,0,1.207,0.053,1.736,0.158c0.529,0.107,0.996,0.293,1.404,0.559c0.407,0.264,0.73,0.621,0.975,1.072
				c0.242,0.449,0.385,1.009,0.428,1.68h-1.819c-0.029-0.355-0.122-0.652-0.281-0.889c-0.156-0.237-0.357-0.426-0.599-0.568
				c-0.241-0.141-0.513-0.246-0.803-0.311c-0.295-0.063-0.591-0.096-0.891-0.096c-0.271,0-0.545,0.02-0.826,0.064
				c-0.276,0.041-0.531,0.119-0.76,0.225c-0.229,0.107-0.415,0.249-0.557,0.428c-0.142,0.18-0.215,0.412-0.215,0.697
				c0,0.314,0.111,0.576,0.333,0.781c0.22,0.207,0.505,0.38,0.846,0.516c0.343,0.134,0.73,0.252,1.156,0.341
				c0.427,0.093,0.858,0.19,1.286,0.29c0.458,0.102,0.905,0.222,1.339,0.365c0.438,0.143,0.821,0.334,1.157,0.566
				c0.336,0.236,0.607,0.534,0.814,0.892c0.209,0.356,0.313,0.799,0.313,1.328c0,0.671-0.141,1.227-0.419,1.669
				c-0.278,0.444-0.644,0.801-1.096,1.072c-0.447,0.271-0.956,0.461-1.518,0.568c-0.563,0.105-1.126,0.161-1.683,0.161
				c-0.614,0-1.2-0.063-1.758-0.194c-0.557-0.128-1.051-0.338-1.477-0.631c-0.431-0.293-0.771-0.678-1.029-1.156
				c-0.258-0.481-0.4-1.063-0.431-1.748h1.824C297.7,139.659,297.794,139.997,297.965,140.275z"/>
		</g>
		<g>
			<path fill="#FFFFFF" d="M312.277,144.229c-0.213,0.542-0.423,0.999-0.633,1.371c-0.204,0.37-0.435,0.675-0.685,0.911
				c-0.249,0.236-0.527,0.406-0.837,0.516c-0.305,0.105-0.661,0.158-1.06,0.158c-0.215,0-0.428-0.013-0.642-0.043
				c-0.214-0.027-0.42-0.076-0.62-0.149v-1.671c0.156,0.07,0.34,0.133,0.545,0.182c0.207,0.05,0.381,0.074,0.523,0.074
				c0.374,0,0.684-0.088,0.934-0.265c0.25-0.181,0.439-0.434,0.567-0.763l0.75-1.865l-4.396-11.013h2.061l3.234,9.064h0.044
				l3.108-9.064h1.927L312.277,144.229z"/>
		</g>
	</g>
	<g>
		<rect x="111.055" y="119.341" fill="#FFFFFF" width="204.959" height="1.666"/>
	</g>
	<g>
		<path fill="#FFFFFF" d="M122.13,9.508c0.65,0,1.349,0.007,2.095,0.021c0.75,0.016,1.489,0.059,2.224,0.127
			c0.735,0.072,1.419,0.178,2.054,0.318c0.636,0.142,1.177,0.352,1.63,0.634c0.986,0.594,1.829,1.413,2.521,2.457
			c0.688,1.043,1.037,2.328,1.037,3.853c0,1.608-0.389,2.998-1.165,4.169c-0.777,1.172-1.886,2.039-3.323,2.604v0.086
			c1.86,0.394,3.287,1.241,4.274,2.539c0.989,1.297,1.484,2.878,1.484,4.742c0,1.1-0.201,2.172-0.593,3.218
			c-0.396,1.044-0.983,1.968-1.757,2.773c-0.777,0.802-1.735,1.453-2.88,1.947c-1.143,0.493-2.464,0.741-3.958,0.741h-14.609V9.508
			H122.13z M123.233,22.506c2.287,0,3.93-0.402,4.932-1.206c1.003-0.804,1.503-2.011,1.503-3.621c0-1.071-0.168-1.919-0.51-2.541
			c-0.337-0.62-0.802-1.1-1.396-1.439c-0.592-0.338-1.276-0.558-2.053-0.656c-0.777-0.097-1.603-0.147-2.476-0.147h-8.042v9.61
			H123.233z M125.266,36.351c1.777,0,3.165-0.479,4.169-1.439c1.003-0.961,1.503-2.285,1.503-3.981c0-0.987-0.184-1.804-0.551-2.456
			c-0.366-0.647-0.853-1.164-1.46-1.546c-0.606-0.381-1.308-0.647-2.095-0.802c-0.792-0.154-1.61-0.233-2.458-0.233h-9.184v10.457
			H125.266z"/>
		<path fill="#FFFFFF" d="M161.21,37.517c-2.061,1.932-4.994,2.897-8.807,2.897c-3.895,0-6.939-0.924-9.124-2.773
			c-2.188-1.848-3.281-4.791-3.281-8.827V9.508h4.022v19.306c0,2.711,0.719,4.764,2.161,6.16c1.436,1.399,3.514,2.097,6.222,2.097
			c2.568,0,4.522-0.698,5.864-2.097c1.34-1.396,2.011-3.448,2.011-6.16V9.508h4.019v19.306
			C164.297,32.68,163.268,35.582,161.21,37.517z"/>
		<path fill="#FFFFFF" d="M185.872,13.637c-1.342-0.974-3.059-1.463-5.145-1.463c-0.848,0-1.68,0.086-2.5,0.255
			c-0.819,0.169-1.544,0.452-2.18,0.847c-0.635,0.396-1.144,0.925-1.523,1.587c-0.379,0.665-0.57,1.49-0.57,2.478
			c0,0.93,0.272,1.686,0.824,2.265c0.551,0.579,1.283,1.053,2.203,1.419c0.915,0.366,1.953,0.672,3.109,0.91
			c1.158,0.239,2.334,0.501,3.535,0.783c1.199,0.283,2.381,0.614,3.535,0.996c1.158,0.38,2.191,0.896,3.111,1.544
			c0.92,0.651,1.65,1.468,2.201,2.456c0.554,0.99,0.83,2.229,0.83,3.726c0,1.61-0.362,2.984-1.084,4.13
			c-0.717,1.142-1.644,2.072-2.77,2.792c-1.131,0.719-2.396,1.242-3.793,1.566c-1.394,0.325-2.785,0.487-4.17,0.487
			c-1.693,0-3.295-0.213-4.804-0.634c-1.509-0.423-2.837-1.066-3.982-1.928c-1.144-0.86-2.046-1.96-2.706-3.302
			c-0.666-1.338-0.998-2.927-0.998-4.763h3.811c0,1.271,0.249,2.365,0.745,3.283c0.491,0.916,1.14,1.671,1.946,2.263
			c0.804,0.594,1.742,1.029,2.814,1.313c1.072,0.281,2.173,0.424,3.303,0.424c0.902,0,1.813-0.086,2.728-0.255
			c0.92-0.169,1.745-0.458,2.48-0.867c0.733-0.41,1.324-0.966,1.776-1.671c0.452-0.708,0.68-1.609,0.68-2.712
			c0-1.043-0.277-1.889-0.827-2.538c-0.552-0.65-1.286-1.179-2.202-1.59c-0.918-0.409-1.954-0.74-3.11-0.994
			c-1.159-0.252-2.338-0.513-3.534-0.784c-1.201-0.267-2.381-0.576-3.539-0.931c-1.156-0.351-2.193-0.818-3.111-1.397
			c-0.916-0.577-1.65-1.325-2.2-2.244c-0.55-0.917-0.827-2.066-0.827-3.449c0-1.525,0.313-2.844,0.932-3.959
			c0.623-1.116,1.447-2.033,2.478-2.753c1.031-0.72,2.202-1.254,3.514-1.608c1.315-0.352,2.661-0.529,4.045-0.529
			c1.552,0,2.989,0.184,4.319,0.553c1.322,0.363,2.488,0.945,3.489,1.733c1.003,0.791,1.792,1.785,2.372,2.985
			c0.578,1.2,0.897,2.634,0.953,4.296h-3.811C187.993,16.186,187.209,14.611,185.872,13.637z"/>
		<path fill="#FFFFFF" d="M202.362,9.508v30.229h-4.025V9.508H202.362z"/>
		<path fill="#FFFFFF" d="M213.368,9.508l15.919,24.512h0.083V9.508h3.813v30.229h-4.403l-15.793-24.261h-0.083v24.261h-3.812V9.508
			H213.368z"/>
		<path fill="#FFFFFF" d="M260.572,9.508v3.388h-16.848v9.61h15.706v3.388h-15.706v10.457h16.974v3.387h-20.996V9.508H260.572z"/>
		<path fill="#FFFFFF" d="M280.704,13.637c-1.341-0.974-3.057-1.463-5.143-1.463c-0.848,0-1.684,0.086-2.498,0.255
			c-0.819,0.169-1.546,0.452-2.182,0.847c-0.635,0.396-1.141,0.925-1.525,1.587c-0.377,0.665-0.57,1.49-0.57,2.478
			c0,0.93,0.277,1.686,0.826,2.265s1.284,1.053,2.201,1.419c0.918,0.366,1.955,0.672,3.115,0.91c1.153,0.239,2.33,0.501,3.533,0.783
			c1.197,0.283,2.375,0.614,3.533,0.996c1.158,0.38,2.195,0.896,3.111,1.544c0.918,0.651,1.651,1.468,2.201,2.456
			c0.55,0.99,0.827,2.229,0.827,3.726c0,1.61-0.358,2.984-1.082,4.13c-0.718,1.142-1.642,2.072-2.771,2.792
			c-1.129,0.719-2.392,1.242-3.792,1.566c-1.396,0.325-2.786,0.487-4.169,0.487c-1.693,0-3.295-0.213-4.804-0.634
			c-1.511-0.423-2.837-1.066-3.978-1.928c-1.146-0.86-2.048-1.96-2.713-3.302c-0.663-1.338-0.993-2.927-0.993-4.763h3.81
			c0,1.271,0.246,2.365,0.738,3.283c0.498,0.916,1.146,1.671,1.949,2.263c0.805,0.594,1.744,1.029,2.816,1.313
			c1.072,0.281,2.175,0.424,3.303,0.424c0.903,0,1.813-0.086,2.73-0.255c0.92-0.169,1.742-0.458,2.478-0.867
			c0.732-0.41,1.326-0.966,1.779-1.671c0.449-0.708,0.675-1.609,0.675-2.712c0-1.043-0.271-1.889-0.823-2.538
			c-0.554-0.65-1.284-1.179-2.204-1.59c-0.916-0.409-1.954-0.74-3.11-0.994c-1.159-0.252-2.336-0.513-3.536-0.784
			c-1.2-0.267-2.377-0.576-3.536-0.931c-1.156-0.351-2.192-0.818-3.108-1.397c-0.921-0.577-1.652-1.325-2.204-2.244
			c-0.552-0.917-0.823-2.066-0.823-3.449c0-1.525,0.309-2.844,0.928-3.959c0.621-1.116,1.449-2.033,2.479-2.753
			s2.198-1.254,3.513-1.608c1.313-0.352,2.66-0.529,4.044-0.529c1.555,0,2.989,0.184,4.317,0.553
			c1.326,0.363,2.491,0.945,3.493,1.733c1.001,0.791,1.794,1.785,2.368,2.985c0.579,1.2,0.899,2.634,0.958,4.296h-3.813
			C282.829,16.186,282.048,14.611,280.704,13.637z"/>
		<path fill="#FFFFFF" d="M308.139,13.637c-1.341-0.974-3.054-1.463-5.144-1.463c-0.846,0-1.678,0.086-2.498,0.255
			c-0.817,0.169-1.545,0.452-2.18,0.847c-0.636,0.396-1.143,0.925-1.523,1.587c-0.381,0.665-0.573,1.49-0.573,2.478
			c0,0.93,0.274,1.686,0.827,2.265c0.551,0.579,1.283,1.053,2.2,1.419c0.914,0.366,1.954,0.672,3.111,0.91
			c1.158,0.239,2.337,0.501,3.536,0.783c1.201,0.283,2.376,0.614,3.537,0.996c1.154,0.38,2.193,0.896,3.108,1.544
			c0.917,0.651,1.654,1.468,2.202,2.456c0.551,0.99,0.826,2.229,0.826,3.726c0,1.61-0.361,2.984-1.08,4.13
			c-0.721,1.142-1.644,2.072-2.773,2.792c-1.129,0.719-2.392,1.242-3.789,1.566c-1.397,0.325-2.787,0.487-4.172,0.487
			c-1.691,0-3.294-0.213-4.803-0.634c-1.51-0.423-2.838-1.066-3.979-1.928c-1.146-0.86-2.048-1.96-2.71-3.302
			c-0.662-1.338-0.994-2.927-0.994-4.763h3.809c0,1.271,0.248,2.365,0.74,3.283c0.496,0.916,1.146,1.671,1.95,2.263
			c0.802,0.594,1.739,1.029,2.814,1.313c1.071,0.281,2.175,0.424,3.302,0.424c0.905,0,1.814-0.086,2.731-0.255
			c0.917-0.169,1.741-0.458,2.478-0.867c0.734-0.41,1.325-0.966,1.778-1.671c0.45-0.708,0.676-1.609,0.676-2.712
			c0-1.043-0.272-1.889-0.824-2.538c-0.553-0.65-1.284-1.179-2.203-1.59c-0.917-0.409-1.951-0.74-3.112-0.994
			c-1.154-0.252-2.334-0.513-3.535-0.784c-1.199-0.267-2.379-0.576-3.534-0.931c-1.156-0.351-2.193-0.818-3.11-1.397
			c-0.919-0.577-1.652-1.325-2.203-2.244c-0.552-0.917-0.824-2.066-0.824-3.449c0-1.525,0.309-2.844,0.932-3.959
			c0.619-1.116,1.445-2.033,2.477-2.753c1.029-0.72,2.203-1.254,3.513-1.608c1.313-0.352,2.663-0.529,4.044-0.529
			c1.551,0,2.992,0.184,4.319,0.553c1.323,0.363,2.489,0.945,3.491,1.733c1.002,0.791,1.795,1.785,2.371,2.985
			c0.578,1.2,0.897,2.634,0.955,4.296h-3.813C310.264,16.186,309.479,14.611,308.139,13.637z"/>
	</g>
	<g>
		<path fill="#FFFFFF" d="M130.359,74.828c-1.205,0.622-3.729,1.245-6.917,1.245c-7.382,0-12.897-4.662-12.897-13.288
			c0-8.233,5.556-13.751,13.674-13.751c3.226,0,5.323,0.7,6.215,1.166l-0.853,2.759c-1.244-0.621-3.068-1.086-5.243-1.086
			c-6.142,0-10.219,3.921-10.219,10.797c0,6.45,3.689,10.527,10.021,10.527c2.098,0,4.197-0.426,5.557-1.087L130.359,74.828z"/>
		<path fill="#FFFFFF" d="M155.026,62.281c0,8.974-5.476,13.792-12.156,13.792c-6.958,0-11.775-5.401-11.775-13.324
			c0-8.313,5.128-13.753,12.124-13.753C150.401,48.996,155.026,54.474,155.026,62.281z M134.67,62.669
			c0,5.633,3.03,10.645,8.388,10.645c5.365,0,8.394-4.933,8.394-10.875c0-5.247-2.72-10.686-8.352-10.686
			C137.465,51.752,134.67,56.96,134.67,62.669z"/>
		<path fill="#FFFFFF" d="M158.25,75.645V49.461h3.727l8.354,13.247c1.903,3.071,3.456,5.828,4.66,8.509l0.117-0.041
			c-0.311-3.496-0.389-6.68-0.389-10.76V49.461h3.186v26.183h-3.418l-8.314-13.285c-1.826-2.915-3.575-5.905-4.858-8.743
			l-0.115,0.04c0.194,3.303,0.235,6.449,0.235,10.8v11.188H158.25z"/>
		<path fill="#FFFFFF" d="M182.216,71.528c1.516,0.97,3.689,1.708,6.021,1.708c3.459,0,5.477-1.824,5.477-4.467
			c0-2.409-1.399-3.847-4.933-5.167c-4.272-1.554-6.915-3.809-6.915-7.459c0-4.079,3.379-7.109,8.469-7.109
			c2.643,0,4.623,0.621,5.749,1.28l-0.932,2.759c-0.817-0.506-2.563-1.243-4.933-1.243c-3.574,0-4.934,2.137-4.934,3.923
			c0,2.448,1.594,3.653,5.205,5.051c4.43,1.709,6.64,3.845,6.64,7.692c0,4.039-2.95,7.576-9.126,7.576
			c-2.523,0-5.281-0.779-6.683-1.71L182.216,71.528z"/>
		<path fill="#FFFFFF" d="M204.01,49.461v15.541c0,5.826,2.603,8.312,6.1,8.312c3.846,0,6.373-2.563,6.373-8.312V49.461h3.416
			v15.306c0,8.042-4.236,11.306-9.909,11.306c-5.36,0-9.397-3.032-9.397-11.19V49.461H204.01z"/>
		<path fill="#FFFFFF" d="M224.56,49.461h3.415V72.81h11.188v2.835H224.56V49.461z"/>
		<path fill="#FFFFFF" d="M243.322,52.337h-7.966v-2.876h19.385v2.876h-8v23.307h-3.419V52.337z"/>
		<path fill="#FFFFFF" d="M257.812,67.41l-2.72,8.235h-3.498l8.935-26.183h4.042l8.934,26.183h-3.612l-2.797-8.235H257.812z
			 M266.433,64.767l-2.603-7.535c-0.582-1.71-0.97-3.265-1.359-4.78h-0.077c-0.389,1.515-0.779,3.145-1.321,4.739l-2.563,7.576
			H266.433z"/>
		<path fill="#FFFFFF" d="M276.185,75.645V49.461h3.727l8.354,13.247c1.904,3.071,3.454,5.828,4.663,8.509l0.115-0.041
			c-0.312-3.496-0.386-6.68-0.386-10.76V49.461h3.183v26.183h-3.42l-8.313-13.285c-1.826-2.915-3.572-5.905-4.854-8.743l-0.12,0.04
			c0.195,3.303,0.24,6.449,0.24,10.8v11.188H276.185z"/>
		<path fill="#FFFFFF" d="M305.55,52.337h-7.96v-2.876h19.382v2.876h-8.004v23.307h-3.418V52.337z"/>
	</g>
	<g>
		<g>
			<rect x="160.169" y="94.479" fill="#FFFFFF" width="9.071" height="2.973"/>
		</g>
		<path fill="#FFFFFF" d="M134.15,96.601c0,9.117-5.562,14.012-12.354,14.012c-7.063,0-11.956-5.486-11.956-13.539
			c0-8.448,5.209-13.972,12.315-13.972C129.454,83.102,134.15,88.667,134.15,96.601z M113.468,96.993
			c0,5.724,3.079,10.816,8.526,10.816s8.525-5.013,8.525-11.051c0-5.328-2.763-10.855-8.486-10.855
			C116.314,85.903,113.468,91.192,113.468,96.993z"/>
		<path fill="#FFFFFF" d="M137.427,110.177V83.574h3.79l8.486,13.46c1.935,3.117,3.511,5.922,4.736,8.643l0.118-0.037
			c-0.317-3.553-0.396-6.79-0.396-10.935V83.574h3.24v26.603h-3.473L145.48,96.68c-1.856-2.962-3.631-6.001-4.934-8.881l-0.12,0.038
			c0.197,3.355,0.238,6.553,0.238,10.975v11.365H137.427z"/>
		<path fill="#FFFFFF" d="M173.063,83.97c2.094-0.355,4.58-0.592,7.301-0.592c4.935,0,8.449,1.184,10.778,3.314
			c2.404,2.172,3.788,5.25,3.788,9.553c0,4.34-1.384,7.893-3.827,10.342c-2.528,2.483-6.633,3.827-11.802,3.827
			c-2.489,0-4.499-0.117-6.238-0.315V83.97z M176.499,107.494c0.867,0.116,2.131,0.159,3.471,0.159
			c7.379,0,11.331-4.107,11.331-11.29c0.036-6.276-3.512-10.262-10.778-10.262c-1.773,0-3.117,0.157-4.023,0.354V107.494z"/>
		<path fill="#FFFFFF" d="M211.903,97.704h-10.305v9.592h11.527v2.881h-14.999V83.574h14.407v2.882h-10.936v8.406h10.305V97.704z"/>
		<path fill="#FFFFFF" d="M238.819,98.493c-0.195-3.708-0.432-8.208-0.432-11.484h-0.083c-0.946,3.078-2.009,6.435-3.354,10.105
			l-4.697,12.906h-2.603l-4.343-12.672c-1.26-3.787-2.285-7.182-3.037-10.34h-0.08c-0.079,3.315-0.274,7.737-0.514,11.762
			l-0.71,11.406h-3.273l1.853-26.603h4.381l4.541,12.868c1.103,3.276,1.974,6.194,2.682,8.959h0.082
			c0.707-2.685,1.654-5.605,2.841-8.959l4.736-12.868h4.382l1.655,26.603h-3.394L238.819,98.493z"/>
		<path fill="#FFFFFF" d="M250.858,101.808l-2.762,8.369h-3.553l9.077-26.603h4.104l9.079,26.603h-3.671l-2.843-8.369H250.858z
			 M259.622,99.126l-2.646-7.658c-0.592-1.735-0.985-3.314-1.379-4.855h-0.081c-0.395,1.541-0.79,3.199-1.339,4.818l-2.607,7.695
			H259.622z"/>
		<path fill="#FFFFFF" d="M269.528,110.177V83.574h3.789l8.486,13.46c1.934,3.117,3.512,5.922,4.736,8.643l0.117-0.037
			c-0.314-3.553-0.395-6.79-0.395-10.935V83.574h3.238v26.603h-3.475l-8.445-13.497c-1.854-2.962-3.633-6.001-4.935-8.881
			l-0.115,0.038c0.194,3.355,0.235,6.553,0.235,10.975v11.365H269.528z"/>
		<path fill="#FFFFFF" d="M294.314,83.97c2.095-0.355,4.58-0.592,7.302-0.592c4.935,0,8.445,1.184,10.776,3.314
			c2.407,2.172,3.788,5.25,3.788,9.553c0,4.34-1.381,7.893-3.827,10.342c-2.527,2.483-6.633,3.827-11.802,3.827
			c-2.488,0-4.501-0.117-6.237-0.315V83.97z M297.751,107.494c0.865,0.116,2.127,0.159,3.473,0.159
			c7.38,0,11.326-4.107,11.326-11.29c0.042-6.276-3.512-10.262-10.774-10.262c-1.776,0-3.12,0.157-4.024,0.354V107.494z"/>
	</g>
</g>
</svg>
